
<svg xmlns="http://www.w3.org/2000/svg" viewBox="0 0 800 600">
  <path fill="currentColor" d="M400 50c-8-6.5-18.5-10-29.5-9l-290 22.3c-11 .8-21.2 5.2-29.5 12.2L-20.5 156.2c-8.2 7-14 16.5-16.8 27L-67.2 312.4c-2.7 10.5-1.7 21.5 2.7 31.4l71.3 157.5c4.1 9.3 11 16.8 19.7 22.3l201.3 130.3c8.8 5.7 19 8.7 29.5 8.7h223.3c10.5 0 20.7-3 29.5-8.7l201.3-130.3c8.8-5.7 15.6-13.2 19.7-22.3l71.3-157.5c4.4-9.8 5.4-20.8 2.7-31.4l-29.8-129.2c-2.7-10.5-8.5-20-16.8-27l-92.7-80.7c-8.2-7-18.5-11.5-29.5-12.2l-290-22.3c-11-1-21.5 2.5-29.5 9L400 50z"/>
  <path fill="currentColor" d="M380.3 162.9L265.9 277.3c-3.4 3.4-3.4 9 0 12.4l54.6 54.6c3.4 3.4 9 3.4 12.4 0l114.4-114.4c3.4-3.4 3.4-9 0-12.4l-54.6-54.6c-3.4-3.4-8.9-3.4-12.4 0z"/>
</svg>
