
<svg xmlns="http://www.w3.org/2000/svg" viewBox="0 0 800 500">
  <path fill="currentColor" d="M480 40.9c-4.3-3.7-9.9-5.6-15.7-5.1l-290 22.3c-4.5.3-8.7 2.1-12.1 5L69.5 143.8c-3.4 2.9-5.8 6.8-6.9 11.1L32.8 284.1c-1.1 4.3-.7 8.8 1.1 12.9l71.3 157.5c1.7 3.8 4.5 7.1 8.1 9.4l201.3 130.3c3.6 2.3 7.8 3.5 12.1 3.5h223.3c4.3 0 8.5-1.2 12.1-3.5l201.3-130.3c3.6-2.3 6.4-5.6 8.1-9.4l71.3-157.5c1.8-4 2.2-8.6 1.1-12.9l-29.8-129.2c-1.1-4.3-3.5-8.2-6.9-11.1L713.2 63.1c-3.4-2.9-7.6-4.7-12.1-5L411.1 35.8c-5.8-.5-11.4 1.4-15.7 5.1l-41.4 35.7-41.4-35.7z"/>
  <path fill="currentColor" d="M380.3 162.9L265.9 277.3c-3.4 3.4-3.4 9 0 12.4l54.6 54.6c3.4 3.4 9 3.4 12.4 0l114.4-114.4c3.4-3.4 3.4-9 0-12.4l-54.6-54.6c-3.4-3.4-8.9-3.4-12.4 0z"/>
</svg>
